<svg xmlns="http://www.w3.org/2000/svg" width="13" height="13"><g><path d="M0 8.5c0-1.933 1.567-3.5 3.5-3.5s3.5 1.567 3.5 3.5-1.567 3.5-3.5 3.5-3.5-1.567-3.5-3.5z" fill="#f51602"/><path d="M5.454 2.897c-1.387-.219-2.603.819-2.584 2.158.205-.037.414-.055.63-.055 1.933 0 3.5 1.567 3.5 3.5 0 .536-.12 1.041-.335 1.495l3.984.005c.488-.058.77-.187.77-.187.931-.349 1.581-1.156 1.581-2.458 0-1.175-1.135-2.401-2.469-2.51.084-.2.217-.681.217-.906 0-1.072-1.009-1.937-2.251-1.937-.918 0-1.495.666-1.841 1.344-.289-.097-.75-.375-1.202-.446z"/></g></svg>