<svg xmlns="http://www.w3.org/2000/svg" width="13" height="13"><g><path d="M7.745 10h2.904c.488-.058.77-.187.77-.187.931-.349 1.581-1.156 1.581-2.458 0-1.175-1.135-2.401-2.469-2.51.084-.2.217-.681.217-.906 0-1.072-1.009-1.937-2.251-1.937-.918 0-1.495.666-1.841 1.344-.289-.097-.75-.375-1.202-.446-.995-.157-1.903.333-2.329 1.118l.375-.015c2.485 0 4.5 2.015 4.5 4.5 0 .525-.09 1.031-.255 1.5z" fill="#fff"/><path d="M0 8.5c0-1.933 1.567-3.5 3.5-3.5s3.5 1.567 3.5 3.5-1.567 3.5-3.5 3.5-3.5-1.567-3.5-3.5z" fill="#f51602"/></g></svg>