<svg xmlns="http://www.w3.org/2000/svg" width="20" height="20" viewBox="0 -3.5 20 20" enable-background="new 0 -3.5 20 20">
    <title>
        Aa + Aa 2
    </title>
    <path fill="#F7F6EE" d="M8.242 8.458l1.51 3.987c.02.097.077.116.155.116h1.606c.097 0 .116-.055.077-.152-1.567-4.14-3.135-8.4-4.702-12.54-.02-.078-.04-.097-.117-.097H4.74c-.06 0-.117.04-.117.116-.02.542-.077.697-.135.85C3.19 4.126 1.256 9.33.114 12.406c-.04.1 0 .156.097.156H1.7c.098 0 .136-.038.175-.134L3.327 8.46h4.915zm-4.49-1.432C4.487 4.896 5.436 2.4 5.745 1.2h.02c.386 1.317 1.625 4.55 2.05 5.826H3.752z"/>
    <path fill="#83817E" d="M19.847 11.832c.04-.02.04-.058.04-.077-.02-.348-.04-.658-.04-.987v-4.22c0-2.05-1.084-3.618-3.56-3.618-1.085 0-2.227.31-3.06.755-.076.04-.096.077-.096.155v1.18c0 .097.08.116.138.097.832-.445 1.76-.716 2.71-.716 1.897 0 2.168 1.26 2.168 1.82v.08c-3.716.348-5.903 1.026-5.903 3.33 0 2.128 1.82 3.018 3.89 3.018 1.124 0 2.362-.155 3.717-.813zm-5.883-2.264c0-1.16.987-1.703 4.18-2.013v3.406c-.503.177-1.123.235-1.684.235-1.78 0-2.496-.735-2.496-1.625z"/>
</svg>
