<svg xmlns="http://www.w3.org/2000/svg" width="22" height="18" viewBox="0 0 22 18">
    <title>
        ico-layer-pixel-black
    </title>
    <path fill="#fff" d="M4.5 1.863c0-.2.23-.363.514-.363s.514.162.514.363v8.323c0 .2-.23.363-.514.363-.284 0-.514-.17-.514-.37V1.86zm0 11.937c0-.168.23-.304.514-.304s.514.136.514.304v2.605c0 .168-.23.304-.514.304s-.514-.14-.514-.31v-2.6zm6-11.973c0-.18.224-.327.5-.327s.5.146.5.327V4.63c0 .18-.224.326-.5.326s-.5-.146-.5-.327V1.82zm0 6.55c0-.19.224-.347.5-.347s.5.156.5.348v7.982c0 .192-.224.348-.5.348s-.5-.156-.5-.348V8.378zm6-6.495c0-.21.224-.382.5-.382s.5.17.5.382v6.023c0 .21-.224.382-.5.382s-.5-.17-.5-.382V1.882zm0 9.872c0-.164.224-.295.5-.295s.5.13.5.29v4.66c0 .16-.224.29-.5.29s-.5-.133-.5-.295V11.75z"/>
    <path fill="#BCBBB8" d="M11 4.5c.552 0 1.053.224 1.414.586.362.362.586.862.586 1.414s-.224 1.053-.586 1.414c-.362.362-.862.586-1.414.586s-1.053-.224-1.414-.586C9.224 7.554 9 7.054 9 6.5c0-.552.224-1.053.586-1.414.362-.36.862-.586 1.414-.586zm.82 1.182c-.21-.208-.5-.338-.82-.338s-.61.13-.82.338c-.208.21-.338.5-.338.82 0 .32.13.61.338.818.21.21.5.338.82.338.32 0 .61-.13.818-.338.21-.21.338-.5.338-.82.002-.32-.127-.61-.337-.818zM5 10c.552 0 1.053.224 1.414.586.362.362.586.862.586 1.414s-.224 1.053-.586 1.414C6.052 13.776 5.552 14 5 14s-1.053-.224-1.414-.586C3.224 13.052 3 12.552 3 12s.224-1.053.586-1.414C3.946 10.224 4.446 10 5 10zm.82 1.18c-.21-.208-.5-.338-.82-.338s-.61.13-.82.338c-.21.21-.337.5-.337.82 0 .32.13.61.338.818.21.21.5.34.82.34s.61-.13.82-.338c.21-.21.34-.5.34-.82 0-.32-.13-.61-.34-.82zM17 7.94c.552 0 1.053.225 1.414.587.362.362.586.862.586 1.414s-.224 1.06-.586 1.42c-.362.36-.862.59-1.414.59s-1.053-.224-1.414-.586C15.224 11 15 10.5 15 9.947s.224-1.052.586-1.413c.36-.36.862-.585 1.414-.585zm.82 1.182c-.21-.21-.5-.34-.82-.34s-.61.13-.82.34c-.208.208-.338.497-.338.818s.13.61.34.82c.208.208.497.337.818.337.32 0 .61-.13.82-.338.21-.21.337-.5.337-.82s-.13-.61-.338-.82z"/>
    <path fill="#82817E" d="M-3.315 2.51c-.712 0-2.07 1.925-2.07 1.925C-6.443 3.28-8.783 0-9.472 0c-.712 0-3.514 3.508-5.09 5.943H-.146C-.17 5.923-2.59 2.51-3.316 2.51z"/>
</svg>
