<svg xmlns="http://www.w3.org/2000/svg" width="22" height="18" viewBox="0 0 22 18">
    <title>
        ico-layer-pixel-black
    </title>
    <path fill="#474746" d="M3.93 1.708c0-.205.167-.37.372-.37s.37.165.37.37v8.503c0 .21-.165.38-.37.38s-.37-.166-.37-.37V1.71zm0 11.285c0-.205.167-.37.372-.37s.37.165.37.37v3.182c0 .205-.165.37-.37.37s-.37-.165-.37-.37v-3.182zM10.4 1.708c0-.205.166-.37.37-.37s.372.165.372.37V4.89c0 .205-.166.37-.37.37s-.372-.165-.372-.37V1.708zm0 5.963c0-.2.166-.37.37-.37s.372.17.372.37v8.51c0 .207-.166.37-.37.37s-.372-.163-.372-.37V7.67zm6.468-5.96c0-.2.166-.37.37-.37s.372.17.372.37v5.84c0 .21-.166.378-.37.378s-.372-.166-.372-.37v-5.85zm0 8.63c0-.206.166-.37.37-.37s.372.164.372.37v5.84c0 .205-.166.37-.37.37s-.372-.165-.372-.37V10.34z"/>
    <path fill="#82817E" d="M10.77 4.52c.486 0 .927.196 1.245.515.32.32.516.76.516 1.245s-.19.927-.51 1.245c-.32.32-.76.516-1.242.516s-.926-.19-1.244-.51c-.32-.32-.516-.76-.516-1.242 0-.485.196-.926.515-1.244.32-.32.76-.516 1.245-.516zm.72 1.04c-.183-.184-.438-.298-.72-.298s-.537.114-.72.298c-.185.184-.3.44-.3.72s.115.538.3.722c.184.184.44.298.72.298.282 0 .537-.114.72-.298s.3-.44.3-.72c0-.283-.114-.538-.3-.722zM4.302 9.84c.486 0 .927.198 1.245.517.32.32.516.76.516 1.245s-.197.927-.516 1.245c-.32.32-.76.516-1.245.516s-.927-.197-1.245-.516c-.32-.32-.516-.76-.516-1.245s.2-.927.52-1.245c.32-.32.76-.516 1.25-.516zm.72 1.04c-.183-.183-.438-.297-.72-.297s-.537.114-.72.298-.3.44-.3.73.115.537.3.72.438.3.72.3.537-.115.72-.3.3-.44.3-.72c0-.28-.115-.536-.3-.72zm12.218-3.7c.485 0 .926.197 1.244.516.32.32.516.76.516 1.245s-.197.93-.516 1.25c-.32.32-.76.52-1.245.52s-.93-.197-1.25-.516c-.32-.32-.52-.76-.52-1.245s.197-.927.516-1.245c.32-.32.76-.516 1.245-.516zm.72 1.04c-.184-.184-.44-.298-.72-.298-.283 0-.538.114-.722.298s-.3.44-.3.72.115.538.3.722c.184.184.44.298.72.298.283 0 .538-.114.722-.298s.298-.44.298-.72-.114-.537-.298-.722z"/>
    <path fill="#474746" d="M42 1.75c.69 0 1.25.56 1.25 1.25v12c0 .69-.56 1.25-1.25 1.25H26c-.69 0-1.25-.56-1.25-1.25V3c0-.69.56-1.25 1.25-1.25h16M42 1H26c-1.105 0-2 .895-2 2v12c0 1.105.895 2 2 2h16c1.105 0 2-.895 2-2V3c0-1.105-.895-2-2-2z"/>
    <circle fill="#82817E" cx="38.938" cy="5.929" r="1.938"/>
    <path fill="#5C5B58" d="M38.185 10.443c-.712 0-2.07 1.926-2.07 1.926-1.057-1.16-3.397-4.44-4.086-4.44-.72 0-3.52 3.51-5.09 5.94h14.41c-.028-.02-2.448-3.435-3.17-3.435z"/>
</svg>
