<svg xmlns="http://www.w3.org/2000/svg" width="20" height="20" viewBox="0 -3.5 20 20" enable-background="new 0 -3.5 20 20">
    <title>
        Aa + Aa 3
    </title>
    <path fill="#505050" d="M8.25 8.148l1.51 3.987c.02.097.077.116.155.116h1.606c.1 0 .12-.055.08-.152-1.57-4.142-3.135-8.4-4.703-12.54-.02-.08-.038-.098-.116-.098H4.747c-.058 0-.116.04-.116.115-.02.542-.077.697-.135.852C3.198 3.813 1.263 9.02.12 12.097c-.038.096 0 .154.098.154h1.49c.097 0 .135-.036.174-.132L3.334 8.15H8.25zM3.76 6.716C4.495 4.586 5.444 2.09 5.753.89h.02c.387 1.316 1.625 4.548 2.05 5.826H3.76z"/>
    <path fill="#9B9B9B" d="M19.855 11.522c.04-.02.04-.058.04-.077-.02-.348-.04-.658-.04-.987v-4.22c0-2.05-1.084-3.62-3.56-3.62-1.085 0-2.227.31-3.06.756-.076.04-.096.077-.096.155v1.18c0 .095.074.114.132.095.832-.445 1.76-.716 2.71-.716 1.897 0 2.168 1.26 2.168 1.82v.076c-3.715.348-5.902 1.026-5.902 3.33 0 2.128 1.818 3.018 3.89 3.018 1.12 0 2.36-.155 3.715-.813zM13.97 9.257c0-1.16.988-1.703 4.18-2.013v3.406c-.502.174-1.122.232-1.683.232-1.78 0-2.496-.734-2.496-1.625z"/>
</svg>
