<svg width="20" height="13" viewBox="0 0 20 13" xmlns="http://www.w3.org/2000/svg">
    <title>
        Aa + Aa 2
    </title>
    <g fill="none" fill-rule="evenodd">
        <path d="M8.46 8.184l1.404 3.708c.018.09.072.108.144.108h1.494c.09 0 .108-.054.072-.144C10.116 8.004 8.658 4.044 7.2.192c-.018-.072-.036-.09-.108-.09h-1.89c-.054 0-.108.036-.108.108-.018.504-.072.648-.126.792C3.762 4.152 1.962 8.994.9 11.856c-.036.09 0 .144.09.144h1.386c.09 0 .126-.036.162-.126l1.35-3.69H8.46zM4.284 6.852c.684-1.98 1.566-4.302 1.854-5.418h.018c.36 1.224 1.512 4.23 1.908 5.418h-3.78z" fill="#F7F6EE"/>
        <path d="M19.85 11.322c.036-.018.036-.054.036-.072-.018-.324-.036-.612-.036-.918V6.408c0-1.908-1.008-3.366-3.312-3.366-1.008 0-2.07.288-2.844.702-.072.036-.09.072-.09.144v1.098c0 .09.072.108.126.09.774-.414 1.638-.666 2.52-.666 1.764 0 2.016 1.17 2.016 1.692v.072c-3.456.324-5.49.954-5.49 3.096 0 1.98 1.692 2.808 3.618 2.808 1.044 0 2.196-.144 3.456-.756zm-5.472-2.106c0-1.08.918-1.584 3.888-1.872v3.168c-.468.162-1.044.216-1.566.216-1.656 0-2.322-.684-2.322-1.512z" fill="#83817E"/>
    </g>
</svg>
