<svg xmlns="http://www.w3.org/2000/svg" width="24" height="24" viewBox="0 0 24 24">
    <title>
        ico-pen-black 2
    </title>
    <g fill="#F3F3EE">
        <path fill-opacity=".64" d="M14.45 4.62c-4.048 2.326-8.16 3.454-8.16 3.454S2.14 18.617.695 21.934c-.036.077-.093.657-.097.808l8.558-8.558c-.033-.2-.047-.41-.024-.648.07-.788.715-1.045 1.5-1.045s1.33.404 1.33 1.13c0 1.26-.615 1.934-1.4 1.934-.21 0-.416-.055-.606-.153l-8.44 8.44c.213 0 .405-.007.482-.037 3.36-1.416 14.298-5.72 14.298-5.72s1.113-4.194 3.588-8.025L14.45 4.62z"/>
        <path opacity=".8" enable-background="new" d="M22.215 9.582l2.23-2.502L17.24-.047l-2.504 2.273 7.48 7.356z"/>
    </g>
</svg>
