<svg xmlns="http://www.w3.org/2000/svg" width="22" height="18" viewBox="-0.5 0.5 22 18" enable-background="new -0.5 0.5 22 18">
    <path fill="#fff" d="M18.5 2.5c.55 0 1 .45 1 1v12c0 .55-.45 1-1 1h-16c-.55 0-1-.45-1-1v-12c0-.55.45-1 1-1h16m0-1h-16c-1.105 0-2 .895-2 2v12c0 1.105.895 2 2 2h16c1.105 0 2-.895 2-2v-12c0-1.105-.895-2-2-2z"/>
    <circle fill="#fff" cx="15.438" cy="6.429" r="1.938"/>
    <path fill="#82817E" d="M14.685 10.943c-.712 0-2.07 1.926-2.07 1.926-1.057-1.16-3.397-4.44-4.085-4.44-.714 0-3.516 3.503-5.09 5.94h14.41c-.022-.02-2.442-3.436-3.168-3.436z"/>
</svg>
