<svg xmlns="http://www.w3.org/2000/svg" width="22" height="18" viewBox="0 0 22 18">
    <title>
        ico-layer-pixel-black
    </title>
    <path fill="#474746" d="M19 1.75c.69 0 1.25.56 1.25 1.25v12c0 .69-.56 1.25-1.25 1.25H3c-.69 0-1.25-.56-1.25-1.25V3c0-.69.56-1.25 1.25-1.25h16M19 1H3c-1.105 0-2 .895-2 2v12c0 1.105.895 2 2 2h16c1.105 0 2-.895 2-2V3c0-1.105-.895-2-2-2z"/>
    <circle fill="#82817E" cx="15.938" cy="5.929" r="1.938"/>
    <path fill="#5C5B58" d="M15.185 10.443c-.712 0-2.07 1.926-2.07 1.926-1.057-1.16-3.397-4.44-4.085-4.44-.714 0-3.516 3.503-5.09 5.94h14.41c-.022-.02-2.442-3.436-3.168-3.436z"/>
</svg>
