<svg xmlns="http://www.w3.org/2000/svg" width="24" height="24" viewBox="0 0 24 24">
    <title>
        ico-pen-black
    </title>
    <path opacity=".6" fill="#9C9B90" fill-opacity=".5" enable-background="new" d="M13.917 4.642c-4.048 2.325-8.16 3.453-8.16 3.453S1.607 18.638.162 21.955c-.036.077-.093.657-.097.808l8.56-8.558c-.034-.2-.048-.41-.025-.648.072-.788.716-1.045 1.502-1.045s1.33.4 1.33 1.13c0 1.258-.616 1.93-1.402 1.93-.208 0-.415-.054-.605-.152l-8.44 8.44c.213 0 .405-.007.482-.037 3.36-1.416 14.298-5.72 14.298-5.72s1.113-4.194 3.588-8.025l-5.436-5.436z"/>
    <path opacity=".8" fill="#5A5853" enable-background="new" d="M21.683 9.602l2.23-2.502-7.207-7.127-2.504 2.273 7.48 7.356z"/>
    <path fill="none" stroke="#5A5853" stroke-width=".8" stroke-miterlimit="10" d="M13.917 4.642c-4.048 2.325-8.16 3.453-8.16 3.453S1.607 18.638.162 21.955c-.036.077-.093.657-.097.808l.92 1.097c.212 0 .404-.007.48-.037 3.36-1.416 14.3-5.72 14.3-5.72s1.112-4.194 3.587-8.025l-5.436-5.436z"/>
    <path fill="#fff" d="M-1.56 23.977l9.748-9.884c-.02-.187-.02-.368 0-.552.045-.512.35-1.38 1.873-1.38 1.038 0 1.707.59 1.707 1.505 0 1.593-.892 2.306-1.776 2.306-.172 0-.346-.03-.516-.085l-9.645 9.79-1.39-1.697z"/>
    <path fill="#5A5853" d="M10.06 12.533c.786 0 1.33.4 1.33 1.13 0 1.258-.616 1.93-1.402 1.93-.208 0-.415-.054-.605-.152l-9.53 9.674-.91-1.112 9.64-9.773c-.032-.2-.046-.41-.023-.65.07-.79.714-1.045 1.5-1.045m0-.75c-1.31 0-2.15.646-2.248 1.728-.014.147-.018.293-.01.44l-9.393 9.523-.477.48.427.522.91 1.112.53.644.587-.594 9.2-9.336c.132.028.267.042.4.042 1.07 0 2.15-.83 2.15-2.68 0-1.126-.834-1.88-2.078-1.88z"/>
</svg>
