<svg width="14" height="14" viewBox="0 0 14 14" xmlns="http://www.w3.org/2000/svg">
    <title>
        ico-gear-white
    </title>
    <g fill="#F7F6EE" fill-rule="evenodd">
        <path d="M7.96.502c.064 0 .1.01.117.015.006.017.014.056.014.122v1.52c0 .21.128.393.315.462.405.15.802.394 1.18.727.086.076.192.115.3.115.08 0 .16-.022.233-.067l1.18-.72.01-.008c.05-.033.083-.044.098-.048.014.013.04.044.07.103.002 0 .003.003.003.004l.993 1.814c.036.062.046.1.048.114-.01.012-.033.04-.09.077l-1.196.715c-.162.098-.254.288-.232.484.02.178.03.358.04.548v.127c0 .256-.017.5-.057.742-.033.202.056.404.225.507l1.214.744.014.008c.044.025.068.046.08.06-.002.013-.006.033-.015.06l-.007.023-.018.034-.003.005-.99 1.806c-.035.06-.062.09-.073.098-.016-.005-.05-.015-.11-.05l-1.25-.757c-.07-.043-.15-.065-.23-.065-.1 0-.2.033-.28.1-.128.098-.254.197-.38.296-.26.164-.517.295-.764.39-.183.073-.304.256-.304.46v1.535c0 .066-.007.105-.013.122-.016.005-.053.014-.116.014H6.03c-.063 0-.1-.01-.116-.014-.005-.018-.014-.057-.014-.123v-1.51c0-.205-.12-.39-.303-.46-.436-.17-.825-.41-1.19-.73-.085-.076-.19-.114-.298-.114-.08 0-.16.02-.23.063l-1.184.71H2.69c-.06.038-.097.048-.112.05-.012-.01-.036-.038-.066-.09l-.974-1.78c-.013-.03-.028-.066-.05-.1-.008-.024-.012-.04-.013-.05.01-.01.036-.038.095-.075l1.202-.73c.17-.104.26-.308.226-.51-.028-.166-.038-.34-.048-.523V6.63c0-.257.02-.5.06-.74.033-.205-.058-.408-.228-.51l-1.21-.73c-.057-.037-.082-.063-.09-.073 0-.004-.003-.008-.004-.012.003-.014.013-.05.045-.114l1-1.803c0-.003.003-.007.005-.01.026-.052.05-.08.06-.09.016.002.05.012.105.046l1.248.756c.075.042.155.064.235.064.1 0 .197-.035.28-.1l.006-.005c.127-.1.248-.196.367-.28.247-.166.505-.3.768-.404.183-.072.304-.255.304-.46V.64c0-.067.01-.106.013-.123.016-.006.053-.015.116-.015h1.93zm0-.49H6.03c-.397 0-.596.21-.596.627v1.53c-.298.116-.585.268-.86.453-.134.093-.266.198-.4.302L2.927 2.17c-.124-.076-.24-.114-.345-.114-.185 0-.34.116-.46.345L1.114 4.22c-.1.198-.133.36-.078.512.033.127.133.244.298.348l1.215.733c-.046.27-.07.537-.07.827v.14c.013.197.024.395.057.592l-1.203.73c-.32.197-.408.453-.254.79.012.01.023.034.035.07l.993 1.812c.125.226.28.338.463.338.11 0 .23-.04.357-.117l1.182-.71c.41.36.85.63 1.324.815v1.51c0 .418.2.628.596.628h1.93c.398 0 .597-.21.597-.628v-1.534c.298-.116.585-.267.862-.442.13-.104.26-.21.394-.313l1.248.752c.127.078.244.117.35.117.182 0 .335-.11.467-.338l.994-1.812c.033-.056.055-.103.066-.15.046-.14.057-.267.024-.37-.044-.13-.143-.245-.31-.338L11.44 7.44c.043-.268.065-.535.065-.826v-.14c-.01-.197-.022-.394-.044-.592l1.207-.72c.342-.22.408-.5.21-.86l-.994-1.813c-.125-.237-.28-.356-.466-.356-.107 0-.224.04-.35.12l-1.182.722c-.41-.36-.85-.64-1.325-.814V.64c0-.42-.2-.628-.597-.628z"/>
        <path d="M7.024 9.126c-.654 0-1.225-.253-1.7-.752-.465-.49-.702-1.09-.702-1.786 0-.704.237-1.31.703-1.8.466-.49 1.038-.74 1.7-.74.66 0 1.23.25 1.697.74.473.5.713 1.104.713 1.8 0 .687-.24 1.288-.713 1.787-.474.498-1.046.75-1.698.75zm0-4.567c-.536 0-.98.19-1.357.59-.377.394-.56.865-.56 1.436 0 .562.183 1.03.56 1.426.385.405.83.602 1.357.602.526 0 .97-.197 1.355-.602.382-.405.57-.87.57-1.426 0-.556-.194-1.04-.57-1.44-.38-.396-.824-.59-1.358-.59z" fill-opacity=".5"/>
    </g>
</svg>
