<svg baseProfile="basic" xmlns="http://www.w3.org/2000/svg" width="12" height="12" viewBox="0 0 12 12">
    <title>
        lock active
    </title>
    <path fill="#F7F6EE" d="M11.648 6.51L8.11 2.89c-.236-.242-.555-.376-.896-.376-.33 0-.642.127-.877.356L4.5 4.666c-.24.234-.375.547-.378.883-.004.333.122.65.356.89l.84.86-.52.505-.033-.033c-.017-.004-.035-.012-.05-.028l-3.538-3.62c-.04-.042-.04-.112.002-.153l1.835-1.795c.025-.025.055-.03.075-.03.02 0 .053.006.078.032L4.55 3.594l.82-.802-1.38-1.417C3.753 1.135 3.434 1 3.093 1c-.33 0-.642.127-.877.356L.376 3.153c-.494.484-.503 1.28-.02 1.775l3.537 3.62c.238.243.557.376.898.376.3 0 .586-.105.81-.296l.52-.506 1.896 1.938c.238.243.557.377.898.377.33 0 .642-.127.877-.356l1.838-1.793c.24-.234.373-.547.377-.883.005-.335-.122-.652-.356-.89zm-.822.955L8.988 9.26c-.025.026-.055.03-.075.03-.02 0-.052-.005-.077-.03l-1.89-1.935.565-.546-.003-.008c.24-.236.375-.55.38-.885.003-.337-.124-.653-.357-.893l-.337-.343-.82.803.334.343c.025.025.03.055.03.076 0 .02-.006.05-.032.076l-.043.04.006.007-.522.504-.846-.865c-.025-.027-.03-.057-.03-.078 0-.02.006-.05.032-.076l1.836-1.79c.025-.025.055-.03.075-.03.02 0 .052.006.077.032l3.537 3.62c.025.026.03.056.03.077 0 .02-.005.05-.03.073z"/>
</svg>
